<?xml version="1.0" encoding="UTF-8"?>
<svg xmlns="http://www.w3.org/2000/svg" xmlns:xlink="http://www.w3.org/1999/xlink" width="4000" height="4000" viewBox="0 0 4000 4000">
<defs>
<clipPath id="clip-0">
<path clip-rule="nonzero" d="M 1318 2016 L 1690 2016 L 1690 2388 L 1318 2388 Z M 1318 2016 "/>
</clipPath>
<clipPath id="clip-1">
<path clip-rule="nonzero" d="M 1504.011719 2358.199219 C 1418.03125 2358.199219 1348.050781 2288.238281 1348.050781 2202.269531 C 1348.050781 2116.269531 1418.03125 2046.308594 1504.011719 2046.308594 C 1589.980469 2046.308594 1659.960938 2116.269531 1659.960938 2202.269531 C 1659.960938 2288.238281 1589.980469 2358.199219 1504.011719 2358.199219 Z M 1504.011719 2016.78125 C 1401.730469 2016.78125 1318.519531 2099.988281 1318.519531 2202.269531 C 1318.519531 2304.519531 1401.730469 2387.730469 1504.011719 2387.730469 C 1606.289062 2387.730469 1689.488281 2304.519531 1689.488281 2202.269531 C 1689.488281 2099.988281 1606.289062 2016.78125 1504.011719 2016.78125 Z M 1504.011719 2016.78125 "/>
</clipPath>
<clipPath id="clip-2">
<path clip-rule="nonzero" d="M 1504.011719 2358.199219 C 1418.03125 2358.199219 1348.050781 2288.238281 1348.050781 2202.269531 C 1348.050781 2116.269531 1418.03125 2046.308594 1504.011719 2046.308594 C 1589.980469 2046.308594 1659.960938 2116.269531 1659.960938 2202.269531 C 1659.960938 2288.238281 1589.980469 2358.199219 1504.011719 2358.199219 Z M 1504.011719 2016.78125 C 1401.730469 2016.78125 1318.519531 2099.988281 1318.519531 2202.269531 C 1318.519531 2304.519531 1401.730469 2387.730469 1504.011719 2387.730469 C 1606.289062 2387.730469 1689.488281 2304.519531 1689.488281 2202.269531 C 1689.488281 2099.988281 1606.289062 2016.78125 1504.011719 2016.78125 "/>
</clipPath>
<linearGradient id="linear-pattern-0" gradientUnits="userSpaceOnUse" x1="0.286246" y1="0" x2="0.43758" y2="0" gradientTransform="matrix(2451.28, -2451.28, 2451.28, 2451.28, 616.86, 3089.41)">
<stop offset="0" stop-color="rgb(21.270752%, 67.405701%, 92.16156%)" stop-opacity="1"/>
<stop offset="0.03125" stop-color="rgb(21.443176%, 67.210388%, 92.1875%)" stop-opacity="1"/>
<stop offset="0.0625" stop-color="rgb(21.788025%, 66.821289%, 92.23938%)" stop-opacity="1"/>
<stop offset="0.09375" stop-color="rgb(22.132874%, 66.43219%, 92.29126%)" stop-opacity="1"/>
<stop offset="0.125" stop-color="rgb(22.477722%, 66.043091%, 92.34314%)" stop-opacity="1"/>
<stop offset="0.15625" stop-color="rgb(22.822571%, 65.653992%, 92.39502%)" stop-opacity="1"/>
<stop offset="0.1875" stop-color="rgb(23.167419%, 65.263367%, 92.446899%)" stop-opacity="1"/>
<stop offset="0.21875" stop-color="rgb(23.512268%, 64.874268%, 92.498779%)" stop-opacity="1"/>
<stop offset="0.25" stop-color="rgb(23.857117%, 64.485168%, 92.550659%)" stop-opacity="1"/>
<stop offset="0.28125" stop-color="rgb(24.201965%, 64.096069%, 92.602539%)" stop-opacity="1"/>
<stop offset="0.3125" stop-color="rgb(24.546814%, 63.705444%, 92.655945%)" stop-opacity="1"/>
<stop offset="0.34375" stop-color="rgb(24.893188%, 63.316345%, 92.707825%)" stop-opacity="1"/>
<stop offset="0.375" stop-color="rgb(25.238037%, 62.927246%, 92.759705%)" stop-opacity="1"/>
<stop offset="0.40625" stop-color="rgb(25.582886%, 62.538147%, 92.811584%)" stop-opacity="1"/>
<stop offset="0.4375" stop-color="rgb(25.927734%, 62.147522%, 92.863464%)" stop-opacity="1"/>
<stop offset="0.46875" stop-color="rgb(26.272583%, 61.758423%, 92.915344%)" stop-opacity="1"/>
<stop offset="0.5" stop-color="rgb(26.617432%, 61.369324%, 92.967224%)" stop-opacity="1"/>
<stop offset="0.53125" stop-color="rgb(26.96228%, 60.980225%, 93.019104%)" stop-opacity="1"/>
<stop offset="0.5625" stop-color="rgb(27.307129%, 60.5896%, 93.070984%)" stop-opacity="1"/>
<stop offset="0.59375" stop-color="rgb(27.651978%, 60.2005%, 93.122864%)" stop-opacity="1"/>
<stop offset="0.625" stop-color="rgb(27.996826%, 59.811401%, 93.174744%)" stop-opacity="1"/>
<stop offset="0.65625" stop-color="rgb(28.341675%, 59.422302%, 93.226624%)" stop-opacity="1"/>
<stop offset="0.6875" stop-color="rgb(28.686523%, 59.031677%, 93.278503%)" stop-opacity="1"/>
<stop offset="0.71875" stop-color="rgb(29.031372%, 58.642578%, 93.330383%)" stop-opacity="1"/>
<stop offset="0.75" stop-color="rgb(29.376221%, 58.253479%, 93.382263%)" stop-opacity="1"/>
<stop offset="0.78125" stop-color="rgb(29.721069%, 57.86438%, 93.434143%)" stop-opacity="1"/>
<stop offset="0.8125" stop-color="rgb(30.067444%, 57.475281%, 93.486023%)" stop-opacity="1"/>
<stop offset="0.84375" stop-color="rgb(30.412292%, 57.084656%, 93.537903%)" stop-opacity="1"/>
<stop offset="0.875" stop-color="rgb(30.757141%, 56.695557%, 93.589783%)" stop-opacity="1"/>
<stop offset="0.90625" stop-color="rgb(31.10199%, 56.306458%, 93.641663%)" stop-opacity="1"/>
<stop offset="0.9375" stop-color="rgb(31.446838%, 55.917358%, 93.693542%)" stop-opacity="1"/>
<stop offset="0.96875" stop-color="rgb(31.791687%, 55.526733%, 93.745422%)" stop-opacity="1"/>
<stop offset="1" stop-color="rgb(32.136536%, 55.137634%, 93.797302%)" stop-opacity="1"/>
</linearGradient>
<clipPath id="clip-3">
<path clip-rule="nonzero" d="M 1418 2116 L 1590 2116 L 1590 2288 L 1418 2288 Z M 1418 2116 "/>
</clipPath>
<clipPath id="clip-4">
<path clip-rule="nonzero" d="M 1504.011719 2258.460938 C 1473.019531 2258.460938 1447.828125 2233.261719 1447.828125 2202.269531 C 1447.828125 2171.269531 1473.019531 2146.070312 1504.011719 2146.070312 C 1535 2146.070312 1560.179688 2171.269531 1560.179688 2202.269531 C 1560.179688 2233.261719 1535 2258.460938 1504.011719 2258.460938 Z M 1504.011719 2116.539062 C 1456.75 2116.539062 1418.300781 2154.988281 1418.300781 2202.269531 C 1418.300781 2249.539062 1456.75 2287.988281 1504.011719 2287.988281 C 1551.261719 2287.988281 1589.710938 2249.539062 1589.710938 2202.269531 C 1589.710938 2154.988281 1551.261719 2116.539062 1504.011719 2116.539062 Z M 1504.011719 2116.539062 "/>
</clipPath>
<clipPath id="clip-5">
<path clip-rule="nonzero" d="M 1504.011719 2258.460938 C 1473.019531 2258.460938 1447.828125 2233.261719 1447.828125 2202.269531 C 1447.828125 2171.269531 1473.019531 2146.070312 1504.011719 2146.070312 C 1535 2146.070312 1560.179688 2171.269531 1560.179688 2202.269531 C 1560.179688 2233.261719 1535 2258.460938 1504.011719 2258.460938 Z M 1504.011719 2116.539062 C 1456.75 2116.539062 1418.300781 2154.988281 1418.300781 2202.269531 C 1418.300781 2249.539062 1456.75 2287.988281 1504.011719 2287.988281 C 1551.261719 2287.988281 1589.710938 2249.539062 1589.710938 2202.269531 C 1589.710938 2154.988281 1551.261719 2116.539062 1504.011719 2116.539062 "/>
</clipPath>
<linearGradient id="linear-pattern-1" gradientUnits="userSpaceOnUse" x1="0.326943" y1="0" x2="0.396878" y2="0" gradientTransform="matrix(2451.28, -2451.28, 2451.28, 2451.28, 616.864, 3089.41)">
<stop offset="0" stop-color="rgb(24.238586%, 64.054871%, 92.608643%)" stop-opacity="1"/>
<stop offset="0.0625" stop-color="rgb(24.397278%, 63.874817%, 92.633057%)" stop-opacity="1"/>
<stop offset="0.125" stop-color="rgb(24.716187%, 63.514709%, 92.680359%)" stop-opacity="1"/>
<stop offset="0.1875" stop-color="rgb(25.035095%, 63.154602%, 92.727661%)" stop-opacity="1"/>
<stop offset="0.25" stop-color="rgb(25.354004%, 62.794495%, 92.776489%)" stop-opacity="1"/>
<stop offset="0.3125" stop-color="rgb(25.672913%, 62.434387%, 92.823792%)" stop-opacity="1"/>
<stop offset="0.375" stop-color="rgb(25.991821%, 62.075806%, 92.87262%)" stop-opacity="1"/>
<stop offset="0.4375" stop-color="rgb(26.31073%, 61.715698%, 92.919922%)" stop-opacity="1"/>
<stop offset="0.5" stop-color="rgb(26.629639%, 61.355591%, 92.96875%)" stop-opacity="1"/>
<stop offset="0.5625" stop-color="rgb(26.948547%, 60.995483%, 93.016052%)" stop-opacity="1"/>
<stop offset="0.625" stop-color="rgb(27.267456%, 60.635376%, 93.06488%)" stop-opacity="1"/>
<stop offset="0.6875" stop-color="rgb(27.586365%, 60.275269%, 93.112183%)" stop-opacity="1"/>
<stop offset="0.75" stop-color="rgb(27.905273%, 59.915161%, 93.161011%)" stop-opacity="1"/>
<stop offset="0.8125" stop-color="rgb(28.224182%, 59.555054%, 93.208313%)" stop-opacity="1"/>
<stop offset="0.875" stop-color="rgb(28.541565%, 59.194946%, 93.255615%)" stop-opacity="1"/>
<stop offset="0.9375" stop-color="rgb(28.860474%, 58.834839%, 93.304443%)" stop-opacity="1"/>
<stop offset="1" stop-color="rgb(29.179382%, 58.476257%, 93.351746%)" stop-opacity="1"/>
</linearGradient>
<clipPath id="clip-6">
<path clip-rule="nonzero" d="M 1657 1335 L 1829 1335 L 1829 1508 L 1657 1508 Z M 1657 1335 "/>
</clipPath>
<clipPath id="clip-7">
<path clip-rule="nonzero" d="M 1689.339844 1405.210938 C 1693.71875 1390.851562 1703.449219 1379.078125 1716.71875 1372.039062 C 1724.941406 1367.660156 1733.941406 1365.449219 1742.980469 1365.449219 C 1748.511719 1365.449219 1754.089844 1366.28125 1759.511719 1367.929688 C 1789.160156 1377 1805.839844 1408.488281 1796.808594 1438.121094 C 1787.730469 1467.710938 1756.320312 1484.511719 1726.601562 1475.398438 C 1712.261719 1471 1700.449219 1461.269531 1693.421875 1448.019531 C 1686.378906 1434.761719 1684.960938 1419.570312 1689.339844 1405.210938 Z M 1717.949219 1503.621094 C 1726.289062 1506.179688 1734.710938 1507.390625 1743.019531 1507.390625 C 1779.699219 1507.390625 1813.730469 1483.628906 1825.03125 1446.769531 C 1838.871094 1401.570312 1813.339844 1353.550781 1768.160156 1339.710938 C 1746.398438 1333.019531 1723.101562 1335.210938 1702.871094 1345.960938 C 1682.648438 1356.679688 1667.808594 1374.660156 1661.121094 1396.558594 C 1654.390625 1418.449219 1656.621094 1441.640625 1667.351562 1461.859375 C 1678.070312 1482.089844 1696.070312 1496.929688 1717.949219 1503.621094 Z M 1717.949219 1503.621094 "/>
</clipPath>
<clipPath id="clip-8">
<path clip-rule="nonzero" d="M 1689.339844 1405.210938 C 1693.71875 1390.851562 1703.449219 1379.078125 1716.71875 1372.039062 C 1724.941406 1367.660156 1733.941406 1365.449219 1742.980469 1365.449219 C 1748.511719 1365.449219 1754.089844 1366.28125 1759.511719 1367.929688 C 1789.160156 1377 1805.839844 1408.488281 1796.808594 1438.121094 C 1787.730469 1467.710938 1756.320312 1484.511719 1726.601562 1475.398438 C 1712.261719 1471 1700.449219 1461.269531 1693.421875 1448.019531 C 1686.378906 1434.761719 1684.960938 1419.570312 1689.339844 1405.210938 Z M 1717.949219 1503.621094 C 1726.289062 1506.179688 1734.710938 1507.390625 1743.019531 1507.390625 C 1779.699219 1507.390625 1813.730469 1483.628906 1825.03125 1446.769531 C 1838.871094 1401.570312 1813.339844 1353.550781 1768.160156 1339.710938 C 1746.398438 1333.019531 1723.101562 1335.210938 1702.871094 1345.960938 C 1682.648438 1356.679688 1667.808594 1374.660156 1661.121094 1396.558594 C 1654.390625 1418.449219 1656.621094 1441.640625 1667.351562 1461.859375 C 1678.070312 1482.089844 1696.070312 1496.929688 1717.949219 1503.621094 "/>
</clipPath>
<linearGradient id="linear-pattern-2" gradientUnits="userSpaceOnUse" x1="0.534323" y1="0" x2="0.607519" y2="0" gradientTransform="matrix(2451.28, -2451.28, 2451.28, 2451.28, 346.071, 2818.62)">
<stop offset="0" stop-color="rgb(39.36615%, 46.977234%, 94.885254%)" stop-opacity="1"/>
<stop offset="0.0625" stop-color="rgb(39.532471%, 46.788025%, 94.909668%)" stop-opacity="1"/>
<stop offset="0.125" stop-color="rgb(39.865112%, 46.411133%, 94.960022%)" stop-opacity="1"/>
<stop offset="0.1875" stop-color="rgb(40.19928%, 46.034241%, 95.010376%)" stop-opacity="1"/>
<stop offset="0.25" stop-color="rgb(40.533447%, 45.657349%, 95.06073%)" stop-opacity="1"/>
<stop offset="0.3125" stop-color="rgb(40.866089%, 45.280457%, 95.111084%)" stop-opacity="1"/>
<stop offset="0.375" stop-color="rgb(41.200256%, 44.903564%, 95.161438%)" stop-opacity="1"/>
<stop offset="0.4375" stop-color="rgb(41.534424%, 44.526672%, 95.211792%)" stop-opacity="1"/>
<stop offset="0.5" stop-color="rgb(41.867065%, 44.14978%, 95.262146%)" stop-opacity="1"/>
<stop offset="0.5625" stop-color="rgb(42.201233%, 43.772888%, 95.3125%)" stop-opacity="1"/>
<stop offset="0.625" stop-color="rgb(42.5354%, 43.397522%, 95.362854%)" stop-opacity="1"/>
<stop offset="0.6875" stop-color="rgb(42.868042%, 43.02063%, 95.413208%)" stop-opacity="1"/>
<stop offset="0.75" stop-color="rgb(43.202209%, 42.643738%, 95.463562%)" stop-opacity="1"/>
<stop offset="0.8125" stop-color="rgb(43.536377%, 42.266846%, 95.51239%)" stop-opacity="1"/>
<stop offset="0.875" stop-color="rgb(43.870544%, 41.889954%, 95.562744%)" stop-opacity="1"/>
<stop offset="0.9375" stop-color="rgb(44.203186%, 41.513062%, 95.613098%)" stop-opacity="1"/>
<stop offset="1" stop-color="rgb(44.537354%, 41.136169%, 95.663452%)" stop-opacity="1"/>
</linearGradient>
<clipPath id="clip-9">
<path clip-rule="nonzero" d="M 2175 1343 L 2347 1343 L 2347 1515 L 2175 1515 Z M 2175 1343 "/>
</clipPath>
<clipPath id="clip-10">
<path clip-rule="nonzero" d="M 2260.671875 1372.808594 C 2260.941406 1372.808594 2261.25 1372.808594 2261.519531 1372.808594 C 2276.519531 1373.019531 2290.550781 1379.058594 2301.011719 1389.828125 C 2311.46875 1400.589844 2317.121094 1414.78125 2316.890625 1429.78125 C 2316.699219 1444.789062 2310.660156 1458.808594 2299.890625 1469.269531 C 2289.128906 1479.738281 2275.25 1485.53125 2259.910156 1485.171875 C 2244.910156 1484.949219 2230.910156 1478.921875 2220.421875 1468.148438 C 2209.960938 1457.398438 2204.339844 1443.199219 2204.539062 1428.199219 C 2205 1397.5 2230.109375 1372.808594 2260.671875 1372.808594 Z M 2259.519531 1514.691406 C 2259.910156 1514.691406 2260.328125 1514.691406 2260.75 1514.691406 C 2283.171875 1514.691406 2304.351562 1506.121094 2320.460938 1490.449219 C 2336.878906 1474.5 2346.109375 1453.078125 2346.421875 1430.199219 C 2346.769531 1407.300781 2338.148438 1385.660156 2322.199219 1369.238281 C 2306.199219 1352.839844 2284.820312 1343.609375 2261.910156 1343.28125 C 2261.519531 1343.28125 2261.101562 1343.28125 2260.671875 1343.28125 C 2214.03125 1343.28125 2175.699219 1380.929688 2175.011719 1427.78125 C 2174.351562 1475.050781 2212.269531 1514.039062 2259.519531 1514.691406 Z M 2259.519531 1514.691406 "/>
</clipPath>
<clipPath id="clip-11">
<path clip-rule="nonzero" d="M 2260.671875 1372.808594 C 2260.941406 1372.808594 2261.25 1372.808594 2261.519531 1372.808594 C 2276.519531 1373.019531 2290.550781 1379.058594 2301.011719 1389.828125 C 2311.46875 1400.589844 2317.121094 1414.78125 2316.890625 1429.78125 C 2316.699219 1444.789062 2310.660156 1458.808594 2299.890625 1469.269531 C 2289.128906 1479.738281 2275.25 1485.53125 2259.910156 1485.171875 C 2244.910156 1484.949219 2230.910156 1478.921875 2220.421875 1468.148438 C 2209.960938 1457.398438 2204.339844 1443.199219 2204.539062 1428.199219 C 2205 1397.5 2230.109375 1372.808594 2260.671875 1372.808594 Z M 2259.519531 1514.691406 C 2259.910156 1514.691406 2260.328125 1514.691406 2260.75 1514.691406 C 2283.171875 1514.691406 2304.351562 1506.121094 2320.460938 1490.449219 C 2336.878906 1474.5 2346.109375 1453.078125 2346.421875 1430.199219 C 2346.769531 1407.300781 2338.148438 1385.660156 2322.199219 1369.238281 C 2306.199219 1352.839844 2284.820312 1343.609375 2261.910156 1343.28125 C 2261.519531 1343.28125 2261.101562 1343.28125 2260.671875 1343.28125 C 2214.03125 1343.28125 2175.699219 1380.929688 2175.011719 1427.78125 C 2174.351562 1475.050781 2212.269531 1514.039062 2259.519531 1514.691406 "/>
</clipPath>
<linearGradient id="linear-pattern-3" gradientUnits="userSpaceOnUse" x1="0.638893" y1="0" x2="0.709025" y2="0" gradientTransform="matrix(2451.28, -2451.28, 2451.28, 2451.28, 608.601, 3081.15)">
<stop offset="0" stop-color="rgb(46.992493%, 38.365173%, 96.034241%)" stop-opacity="1"/>
<stop offset="0.0625" stop-color="rgb(47.15271%, 38.183594%, 96.057129%)" stop-opacity="1"/>
<stop offset="0.125" stop-color="rgb(47.471619%, 37.823486%, 96.105957%)" stop-opacity="1"/>
<stop offset="0.1875" stop-color="rgb(47.792053%, 37.461853%, 96.154785%)" stop-opacity="1"/>
<stop offset="0.25" stop-color="rgb(48.110962%, 37.101746%, 96.202087%)" stop-opacity="1"/>
<stop offset="0.3125" stop-color="rgb(48.431396%, 36.740112%, 96.250916%)" stop-opacity="1"/>
<stop offset="0.375" stop-color="rgb(48.750305%, 36.378479%, 96.298218%)" stop-opacity="1"/>
<stop offset="0.4375" stop-color="rgb(49.07074%, 36.018372%, 96.347046%)" stop-opacity="1"/>
<stop offset="0.5" stop-color="rgb(49.391174%, 35.656738%, 96.394348%)" stop-opacity="1"/>
<stop offset="0.5625" stop-color="rgb(49.710083%, 35.296631%, 96.443176%)" stop-opacity="1"/>
<stop offset="0.625" stop-color="rgb(50.030518%, 34.934998%, 96.490479%)" stop-opacity="1"/>
<stop offset="0.6875" stop-color="rgb(50.349426%, 34.57489%, 96.539307%)" stop-opacity="1"/>
<stop offset="0.75" stop-color="rgb(50.669861%, 34.213257%, 96.586609%)" stop-opacity="1"/>
<stop offset="0.8125" stop-color="rgb(50.98877%, 33.851624%, 96.635437%)" stop-opacity="1"/>
<stop offset="0.875" stop-color="rgb(51.309204%, 33.491516%, 96.684265%)" stop-opacity="1"/>
<stop offset="0.9375" stop-color="rgb(51.628113%, 33.129883%, 96.731567%)" stop-opacity="1"/>
<stop offset="1" stop-color="rgb(51.948547%, 32.769775%, 96.780396%)" stop-opacity="1"/>
</linearGradient>
<clipPath id="clip-12">
<path clip-rule="nonzero" d="M 1000 1236 L 3000 1236 L 3000 2765 L 1000 2765 Z M 1000 1236 "/>
</clipPath>
<clipPath id="clip-13">
<path clip-rule="nonzero" d="M 2589.578125 2214.011719 L 2589.578125 2213.988281 L 2468.621094 2274.980469 L 2468.609375 2275 L 2450.039062 2284.359375 L 2389.789062 2164.871094 L 2523.289062 2097.578125 L 2582.679688 2067.640625 L 2775.558594 1970.410156 L 2835.78125 2089.878906 L 2817.210938 2099.238281 L 2696.238281 2160.21875 L 2696.25 2160.21875 Z M 2536.359375 2057.898438 L 2467.429688 1921.121094 L 2533.441406 1887.828125 L 2602.378906 2024.628906 L 2569.371094 2041.261719 Z M 2378.640625 1932.820312 L 2215.230469 1608.820312 C 2216.449219 1609.128906 2217.730469 1609.25 2218.960938 1609.539062 C 2220.648438 1609.929688 2222.378906 1610.179688 2224.078125 1610.519531 C 2235.140625 1612.75 2246.351562 1614.25 2257.851562 1614.429688 C 2257.941406 1614.429688 2258.011719 1614.449219 2258.101562 1614.449219 C 2258.980469 1614.46875 2259.871094 1614.46875 2260.75 1614.46875 C 2260.820312 1614.46875 2260.878906 1614.449219 2260.949219 1614.449219 C 2260.96875 1614.449219 2261 1614.449219 2261.019531 1614.449219 C 2272.128906 1614.449219 2282.96875 1613.140625 2293.640625 1611.179688 C 2297.519531 1610.480469 2301.25 1609.449219 2305.050781 1608.5 C 2311.578125 1606.859375 2317.960938 1604.929688 2324.21875 1602.601562 C 2328.679688 1600.960938 2333.070312 1599.328125 2337.351562 1597.371094 C 2342.648438 1594.921875 2347.671875 1592.039062 2352.699219 1589.121094 C 2360.28125 1584.75 2367.421875 1579.890625 2374.28125 1574.53125 C 2378.5 1571.230469 2382.789062 1568.050781 2386.710938 1564.410156 C 2390.78125 1560.621094 2394.421875 1556.488281 2398.128906 1552.359375 C 2401.5 1548.621094 2404.75 1544.828125 2407.820312 1540.828125 C 2411.050781 1536.578125 2414.140625 1532.289062 2417.011719 1527.761719 C 2420.089844 1522.929688 2422.761719 1517.851562 2425.378906 1512.71875 C 2427.550781 1508.480469 2429.941406 1504.410156 2431.78125 1499.980469 C 2431.890625 1499.71875 2432.058594 1499.480469 2432.160156 1499.21875 L 2595.621094 1823.378906 L 2487.128906 1878.101562 L 2427.738281 1908.019531 L 2427.75 1908.050781 Z M 1881.171875 1545.339844 C 1882.429688 1543.941406 1883.238281 1542.210938 1884.449219 1540.78125 C 1890.519531 1533.589844 1896.019531 1525.929688 1900.988281 1517.769531 C 1902.628906 1515.089844 1904.351562 1512.5 1905.851562 1509.730469 C 1911.609375 1499.089844 1916.710938 1487.980469 1920.390625 1475.980469 C 1920.441406 1475.800781 1920.441406 1475.609375 1920.5 1475.429688 C 1923.519531 1465.421875 1925.359375 1455.28125 1926.640625 1445.109375 C 1927.070312 1441.808594 1927.429688 1438.539062 1927.679688 1435.230469 C 1928.359375 1425.640625 1928.558594 1416.070312 1927.769531 1406.578125 C 1927.488281 1403.128906 1926.761719 1399.769531 1926.28125 1396.339844 C 1925.308594 1389.351562 1923.96875 1382.449219 1922.210938 1375.640625 C 1921.261719 1371.941406 1920.390625 1368.261719 1919.191406 1364.601562 C 1916.210938 1355.378906 1912.511719 1346.429688 1908.128906 1337.769531 C 1907.621094 1336.769531 1907.390625 1335.671875 1906.851562 1334.671875 C 1905.960938 1332.988281 1904.691406 1331.628906 1903.75 1329.988281 C 1899.53125 1322.558594 1894.820312 1315.421875 1889.578125 1308.609375 C 1888.089844 1306.679688 1886.789062 1304.621094 1885.238281 1302.75 C 1885.058594 1302.539062 1884.921875 1302.300781 1884.738281 1302.078125 L 2122.25 1305.578125 C 2119.640625 1308.5 2117.671875 1311.898438 2115.261719 1314.980469 C 2112.128906 1318.988281 2108.988281 1322.910156 2106.191406 1327.171875 C 2102.308594 1333.070312 2099.050781 1339.269531 2095.859375 1345.578125 C 2093.851562 1349.558594 2091.671875 1353.378906 2089.929688 1357.511719 C 2086.941406 1364.660156 2084.78125 1372.089844 2082.699219 1379.589844 C 2081.628906 1383.421875 2080.210938 1387.058594 2079.390625 1390.96875 C 2077.171875 1401.539062 2075.949219 1412.339844 2075.628906 1423.28125 C 2075.589844 1424.328125 2075.28125 1425.300781 2075.269531 1426.351562 C 2075.25 1427.550781 2075.558594 1428.660156 2075.570312 1429.851562 C 2075.628906 1440.730469 2076.5 1451.460938 2078.351562 1461.910156 C 2079.011719 1465.589844 2080.261719 1469.019531 2081.128906 1472.621094 C 2083.050781 1480.589844 2085.121094 1488.46875 2088.058594 1496.058594 C 2089.390625 1499.46875 2091.121094 1502.621094 2092.640625 1505.941406 C 2095.949219 1513.171875 2099.46875 1520.238281 2103.699219 1526.980469 C 2105.890625 1530.480469 2108.378906 1533.679688 2110.789062 1537.019531 C 2113.558594 1540.828125 2115.871094 1544.941406 2118.949219 1548.550781 Z M 1705.761719 1959.429688 C 1702.839844 1957.109375 1699.738281 1955.078125 1696.75 1952.871094 C 1680.410156 1940.75 1662.941406 1930.160156 1644.460938 1921.238281 C 1641.160156 1919.648438 1637.910156 1917.941406 1634.558594 1916.460938 C 1629.21875 1914.109375 1623.75 1912.058594 1618.269531 1909.980469 C 1614.648438 1908.621094 1611.050781 1907.230469 1607.378906 1905.988281 C 1601.898438 1904.140625 1596.328125 1902.5 1590.730469 1900.941406 C 1586.878906 1899.871094 1583.011719 1898.878906 1579.121094 1897.949219 C 1573.539062 1896.621094 1567.949219 1895.378906 1562.269531 1894.339844 C 1558.058594 1893.570312 1553.820312 1893 1549.578125 1892.398438 C 1544.050781 1891.621094 1538.550781 1890.78125 1532.929688 1890.28125 C 1527.910156 1889.828125 1522.839844 1889.730469 1517.78125 1889.519531 C 1513.179688 1889.320312 1508.660156 1888.820312 1504.011719 1888.820312 C 1493.339844 1888.820312 1482.808594 1889.410156 1472.410156 1890.421875 L 1585.871094 1519.660156 C 1587.640625 1522.5 1589.980469 1524.910156 1591.890625 1527.640625 C 1595.53125 1532.828125 1599.140625 1537.949219 1603.300781 1542.761719 C 1606.558594 1546.53125 1610.171875 1549.890625 1613.730469 1553.390625 C 1618.371094 1557.960938 1622.898438 1562.550781 1628.039062 1566.628906 C 1632.050781 1569.828125 1636.46875 1572.441406 1640.738281 1575.300781 C 1646.019531 1578.820312 1651.070312 1582.550781 1656.761719 1585.550781 C 1663.949219 1589.351562 1671.640625 1592.191406 1679.328125 1595.03125 C 1682.558594 1596.21875 1685.429688 1597.980469 1688.761719 1599 C 1699.019531 1602.148438 1709.320312 1604.109375 1719.601562 1605.421875 C 1722.328125 1605.78125 1725.03125 1605.789062 1727.75 1606.03125 C 1732.820312 1606.441406 1737.898438 1607.148438 1742.941406 1607.148438 C 1745 1607.148438 1747 1606.730469 1749.058594 1606.660156 C 1753.769531 1606.511719 1758.410156 1606.03125 1763.089844 1605.53125 C 1768.601562 1604.921875 1774.03125 1604.148438 1779.421875 1603.058594 C 1784.371094 1602.070312 1789.230469 1600.890625 1794.101562 1599.488281 C 1799.25 1598 1804.269531 1596.230469 1809.269531 1594.300781 C 1812.199219 1593.171875 1815.269531 1592.550781 1818.148438 1591.269531 Z M 1799.039062 2213.398438 L 1799.039062 2486.179688 L 1208.980469 2486.179688 L 1208.980469 2213.398438 C 1208.980469 2072.449219 1308.390625 1954.410156 1440.75 1925.351562 L 1452.539062 1923.140625 C 1453.378906 1922.988281 1454.25 1922.890625 1455.101562 1922.75 C 1470.289062 1919.949219 1486.710938 1918.460938 1503.96875 1918.460938 C 1520.820312 1918.460938 1537.480469 1920.078125 1553.859375 1922.890625 C 1555.660156 1923.199219 1557.5 1923.378906 1559.289062 1923.730469 C 1566.269531 1925.058594 1573.128906 1926.800781 1579.96875 1928.628906 C 1582.121094 1929.199219 1584.308594 1929.671875 1586.429688 1930.289062 C 1592.980469 1932.199219 1599.410156 1934.46875 1605.808594 1936.828125 C 1608.128906 1937.691406 1610.480469 1938.460938 1612.761719 1939.378906 C 1618.859375 1941.808594 1624.828125 1944.539062 1630.761719 1947.371094 C 1633.230469 1948.558594 1635.730469 1949.691406 1638.160156 1950.941406 C 1643.78125 1953.820312 1649.261719 1956.960938 1654.699219 1960.199219 C 1657.28125 1961.75 1659.871094 1963.269531 1662.398438 1964.890625 C 1667.53125 1968.171875 1672.539062 1971.660156 1677.480469 1975.269531 C 1680.109375 1977.191406 1682.75 1979.121094 1685.308594 1981.128906 C 1689.921875 1984.730469 1694.410156 1988.519531 1698.820312 1992.398438 C 1760.109375 2046.511719 1799.039062 2125.410156 1799.039062 2213.398438 Z M 2241.679688 2515.710938 L 2241.679688 2734.519531 L 1029.53125 2734.519531 L 1029.53125 2515.710938 Z M 1593.941406 1376 C 1606.128906 1336.171875 1633.128906 1303.488281 1669.921875 1283.929688 C 1692.761719 1271.800781 1717.71875 1265.648438 1742.859375 1265.648438 C 1758.199219 1265.648438 1773.621094 1267.941406 1788.730469 1272.550781 C 1807.378906 1278.269531 1824.269531 1287.488281 1839.171875 1299.171875 C 1842.71875 1301.929688 1845.851562 1305.070312 1849.109375 1308.101562 C 1852.730469 1311.480469 1856.289062 1314.898438 1859.578125 1318.628906 C 1862.210938 1321.601562 1864.691406 1324.679688 1867.058594 1327.820312 C 1870.550781 1332.441406 1873.71875 1337.328125 1876.710938 1342.371094 C 1878.429688 1345.289062 1880.328125 1348.109375 1881.859375 1351.121094 C 1885.761719 1358.808594 1889.03125 1366.691406 1891.589844 1374.75 C 1892.78125 1378.519531 1893.441406 1382.421875 1894.339844 1386.269531 C 1895.488281 1391.160156 1896.570312 1396.050781 1897.238281 1401.019531 C 1897.820312 1405.300781 1898.128906 1409.621094 1898.351562 1413.960938 C 1898.601562 1419.078125 1898.558594 1424.199219 1898.300781 1429.328125 C 1898.121094 1433.109375 1898.019531 1436.871094 1897.570312 1440.640625 C 1896.480469 1449.289062 1894.898438 1457.929688 1892.339844 1466.449219 C 1892.261719 1466.710938 1892.25 1466.980469 1892.171875 1467.25 C 1892.019531 1467.71875 1891.769531 1468.148438 1891.621094 1468.621094 C 1888.839844 1477.398438 1885.238281 1485.671875 1881.128906 1493.578125 C 1879.539062 1496.609375 1877.640625 1499.449219 1875.859375 1502.371094 C 1872.738281 1507.488281 1869.429688 1512.449219 1865.789062 1517.121094 C 1863.449219 1520.109375 1861 1523.011719 1858.441406 1525.828125 C 1854.601562 1530.058594 1850.519531 1534 1846.269531 1537.761719 C 1843.589844 1540.140625 1840.960938 1542.570312 1838.101562 1544.789062 C 1834.390625 1547.640625 1830.359375 1549.988281 1826.421875 1552.5 C 1820.800781 1556.058594 1815.078125 1559.359375 1809.171875 1562.148438 C 1804.710938 1564.25 1800.179688 1566.128906 1795.539062 1567.800781 C 1789.75 1569.890625 1783.859375 1571.488281 1777.898438 1572.871094 C 1773.171875 1573.96875 1768.449219 1575.121094 1763.609375 1575.78125 C 1756.550781 1576.710938 1749.410156 1576.859375 1742.261719 1576.808594 C 1738.5 1576.800781 1734.789062 1577.160156 1731.011719 1576.871094 C 1719.769531 1575.960938 1708.511719 1574.058594 1697.410156 1570.660156 C 1686.089844 1567.179688 1675.359375 1562.328125 1665.28125 1556.488281 C 1663.671875 1555.558594 1662.289062 1554.359375 1660.730469 1553.378906 C 1652.660156 1548.320312 1645.03125 1542.648438 1638.050781 1536.238281 C 1635.949219 1534.300781 1634.058594 1532.191406 1632.078125 1530.148438 C 1626.171875 1524.089844 1620.730469 1517.601562 1615.871094 1510.648438 C 1614.089844 1508.101562 1612.359375 1505.53125 1610.738281 1502.878906 C 1605.949219 1495.050781 1601.828125 1486.78125 1598.488281 1478.121094 C 1597.351562 1475.210938 1595.871094 1472.460938 1594.910156 1469.488281 L 1593.738281 1466.191406 C 1585.199219 1437.699219 1584.601562 1406.511719 1593.941406 1376 Z M 2262.941406 1273.070312 C 2348.878906 1274.28125 2417.859375 1345.21875 2416.671875 1431.199219 C 2416.539062 1440.410156 2415.25 1449.308594 2413.578125 1458.058594 C 2412.5 1463.878906 2410.710938 1469.410156 2408.988281 1474.96875 C 2407.828125 1478.699219 2406.820312 1482.480469 2405.390625 1486.078125 C 2403.359375 1491.21875 2400.859375 1496.101562 2398.308594 1500.941406 C 2396.488281 1504.410156 2394.679688 1507.871094 2392.609375 1511.171875 C 2389.628906 1515.921875 2386.351562 1520.429688 2382.890625 1524.808594 C 2380.648438 1527.671875 2378.339844 1530.449219 2375.910156 1533.128906 C 2372.03125 1537.398438 2367.96875 1541.480469 2363.648438 1545.289062 C 2361.050781 1547.601562 2358.328125 1549.738281 2355.578125 1551.859375 C 2351.03125 1555.390625 2346.371094 1558.789062 2341.449219 1561.800781 C 2338.210938 1563.78125 2334.800781 1565.460938 2331.410156 1567.199219 C 2326.628906 1569.671875 2321.839844 1572.148438 2316.808594 1574.128906 C 2312.109375 1575.949219 2307.179688 1577.230469 2302.269531 1578.601562 C 2298.148438 1579.769531 2294.128906 1581.199219 2289.898438 1582.019531 C 2280.480469 1583.820312 2270.828125 1584.910156 2260.910156 1584.921875 C 2260.089844 1584.921875 2259.230469 1584.921875 2258.410156 1584.910156 C 2247.199219 1584.75 2236.238281 1583.269531 2225.53125 1580.769531 C 2222.550781 1580.078125 2219.828125 1578.820312 2216.921875 1577.960938 C 2209.210938 1575.671875 2201.570312 1573.160156 2194.210938 1569.640625 C 2186.441406 1565.949219 2178.828125 1561.929688 2171.820312 1557.058594 L 2171.558594 1556.859375 C 2167.808594 1554.230469 2164.628906 1550.929688 2161.128906 1547.988281 C 2154.808594 1542.75 2149 1537.101562 2143.671875 1531.070312 C 2140.839844 1527.820312 2138.160156 1524.449219 2135.589844 1520.980469 C 2131.660156 1515.679688 2128.210938 1510.101562 2125.011719 1504.371094 C 2122.761719 1500.320312 2120.449219 1496.320312 2118.558594 1492.070312 C 2115.648438 1485.519531 2113.488281 1478.660156 2111.519531 1471.730469 C 2110.460938 1468.070312 2109.070312 1464.558594 2108.289062 1460.800781 C 2106.011719 1449.75 2104.679688 1438.378906 2104.828125 1426.738281 C 2104.980469 1415.261719 2106.640625 1403.988281 2109.230469 1393.011719 C 2110.058594 1389.519531 2111.460938 1386.28125 2112.519531 1382.878906 C 2114.738281 1375.710938 2117.230469 1368.648438 2120.449219 1361.910156 C 2122.378906 1357.890625 2124.671875 1354.089844 2126.921875 1350.261719 C 2130.238281 1344.628906 2133.851562 1339.191406 2137.851562 1334.019531 C 2140.679688 1330.359375 2143.609375 1326.808594 2146.738281 1323.429688 C 2151.761719 1318.03125 2157.238281 1313.058594 2163.050781 1308.410156 C 2189.878906 1286.628906 2223.601562 1273.050781 2260.671875 1273.050781 C 2261.410156 1273.050781 2262.171875 1273.050781 2262.941406 1273.070312 Z M 2937.058594 2369.261719 L 2883.070312 2396.480469 L 2899.070312 2196.339844 L 2773.070312 2154.570312 L 2820.671875 2130.578125 L 2966.859375 2167.351562 Z M 2497.988281 2398.519531 L 2668.398438 2504.679688 L 2614.421875 2531.898438 L 2434.359375 2435.789062 L 2491.761719 2296.390625 L 2539.359375 2272.398438 Z M 2875.460938 2102.949219 L 2788.640625 1930.730469 L 2628.769531 2011.320312 L 2559.800781 1874.53125 L 2635.300781 1836.449219 L 2443.410156 1455.949219 C 2444.589844 1447.910156 2446.078125 1439.960938 2446.199219 1431.621094 C 2447.621094 1329.339844 2365.609375 1244.980469 2263.328125 1243.539062 C 2223.308594 1242.351562 2186.121094 1254.96875 2155.320312 1276.539062 L 1851.53125 1272.058594 C 1835.171875 1260.21875 1817.238281 1250.410156 1797.351562 1244.328125 C 1750.128906 1229.828125 1699.839844 1234.621094 1656.078125 1257.871094 C 1612.320312 1281.109375 1580.21875 1319.980469 1565.71875 1367.351562 C 1554.058594 1405.429688 1555.621094 1444.308594 1567.269531 1479.519531 L 1440.050781 1895.210938 C 1291.628906 1925.011719 1179.449219 2056.328125 1179.449219 2213.398438 L 1179.449219 2486.179688 L 1000 2486.179688 L 1000 2764.050781 L 2271.210938 2764.050781 L 2271.210938 2486.179688 L 1828.570312 2486.179688 L 1828.570312 2213.398438 C 1828.570312 2122.289062 1790.699219 2039.949219 1730.039062 1980.949219 L 1854.128906 1574.5 L 2151.710938 1578.53125 C 2158.558594 1583.550781 2166 1587.660156 2173.519531 1591.71875 L 2365.570312 1972.511719 L 2441.050781 1934.429688 L 2509.988281 2071.199219 L 2350.109375 2151.800781 L 2436.96875 2324 L 2451.441406 2316.699219 L 2396.898438 2449.25 L 2614.03125 2565.160156 L 2728.621094 2507.410156 L 2533.289062 2385.710938 L 2576.589844 2253.609375 L 2735.828125 2173.339844 L 2867.769531 2217.070312 L 2849.46875 2446.5 L 2964.050781 2388.710938 L 3000 2145.238281 L 2860.96875 2110.25 Z M 2875.460938 2102.949219 "/>
</clipPath>
<clipPath id="clip-14">
<path clip-rule="nonzero" d="M 2589.578125 2214.011719 L 2589.578125 2213.988281 L 2468.621094 2274.980469 L 2468.609375 2275 L 2450.039062 2284.359375 L 2389.789062 2164.871094 L 2523.289062 2097.578125 L 2582.679688 2067.640625 L 2775.558594 1970.410156 L 2835.78125 2089.878906 L 2817.210938 2099.238281 L 2696.238281 2160.21875 L 2696.25 2160.21875 Z M 2536.359375 2057.898438 L 2467.429688 1921.121094 L 2533.441406 1887.828125 L 2602.378906 2024.628906 L 2569.371094 2041.261719 Z M 2378.640625 1932.820312 L 2215.230469 1608.820312 C 2216.449219 1609.128906 2217.730469 1609.25 2218.960938 1609.539062 C 2220.648438 1609.929688 2222.378906 1610.179688 2224.078125 1610.519531 C 2235.140625 1612.75 2246.351562 1614.25 2257.851562 1614.429688 C 2257.941406 1614.429688 2258.011719 1614.449219 2258.101562 1614.449219 C 2258.980469 1614.46875 2259.871094 1614.46875 2260.75 1614.46875 C 2260.820312 1614.46875 2260.878906 1614.449219 2260.949219 1614.449219 C 2260.96875 1614.449219 2261 1614.449219 2261.019531 1614.449219 C 2272.128906 1614.449219 2282.96875 1613.140625 2293.640625 1611.179688 C 2297.519531 1610.480469 2301.25 1609.449219 2305.050781 1608.5 C 2311.578125 1606.859375 2317.960938 1604.929688 2324.21875 1602.601562 C 2328.679688 1600.960938 2333.070312 1599.328125 2337.351562 1597.371094 C 2342.648438 1594.921875 2347.671875 1592.039062 2352.699219 1589.121094 C 2360.28125 1584.75 2367.421875 1579.890625 2374.28125 1574.53125 C 2378.5 1571.230469 2382.789062 1568.050781 2386.710938 1564.410156 C 2390.78125 1560.621094 2394.421875 1556.488281 2398.128906 1552.359375 C 2401.5 1548.621094 2404.75 1544.828125 2407.820312 1540.828125 C 2411.050781 1536.578125 2414.140625 1532.289062 2417.011719 1527.761719 C 2420.089844 1522.929688 2422.761719 1517.851562 2425.378906 1512.71875 C 2427.550781 1508.480469 2429.941406 1504.410156 2431.78125 1499.980469 C 2431.890625 1499.71875 2432.058594 1499.480469 2432.160156 1499.21875 L 2595.621094 1823.378906 L 2487.128906 1878.101562 L 2427.738281 1908.019531 L 2427.75 1908.050781 Z M 1881.171875 1545.339844 C 1882.429688 1543.941406 1883.238281 1542.210938 1884.449219 1540.78125 C 1890.519531 1533.589844 1896.019531 1525.929688 1900.988281 1517.769531 C 1902.628906 1515.089844 1904.351562 1512.5 1905.851562 1509.730469 C 1911.609375 1499.089844 1916.710938 1487.980469 1920.390625 1475.980469 C 1920.441406 1475.800781 1920.441406 1475.609375 1920.5 1475.429688 C 1923.519531 1465.421875 1925.359375 1455.28125 1926.640625 1445.109375 C 1927.070312 1441.808594 1927.429688 1438.539062 1927.679688 1435.230469 C 1928.359375 1425.640625 1928.558594 1416.070312 1927.769531 1406.578125 C 1927.488281 1403.128906 1926.761719 1399.769531 1926.28125 1396.339844 C 1925.308594 1389.351562 1923.96875 1382.449219 1922.210938 1375.640625 C 1921.261719 1371.941406 1920.390625 1368.261719 1919.191406 1364.601562 C 1916.210938 1355.378906 1912.511719 1346.429688 1908.128906 1337.769531 C 1907.621094 1336.769531 1907.390625 1335.671875 1906.851562 1334.671875 C 1905.960938 1332.988281 1904.691406 1331.628906 1903.75 1329.988281 C 1899.53125 1322.558594 1894.820312 1315.421875 1889.578125 1308.609375 C 1888.089844 1306.679688 1886.789062 1304.621094 1885.238281 1302.75 C 1885.058594 1302.539062 1884.921875 1302.300781 1884.738281 1302.078125 L 2122.25 1305.578125 C 2119.640625 1308.5 2117.671875 1311.898438 2115.261719 1314.980469 C 2112.128906 1318.988281 2108.988281 1322.910156 2106.191406 1327.171875 C 2102.308594 1333.070312 2099.050781 1339.269531 2095.859375 1345.578125 C 2093.851562 1349.558594 2091.671875 1353.378906 2089.929688 1357.511719 C 2086.941406 1364.660156 2084.78125 1372.089844 2082.699219 1379.589844 C 2081.628906 1383.421875 2080.210938 1387.058594 2079.390625 1390.96875 C 2077.171875 1401.539062 2075.949219 1412.339844 2075.628906 1423.28125 C 2075.589844 1424.328125 2075.28125 1425.300781 2075.269531 1426.351562 C 2075.25 1427.550781 2075.558594 1428.660156 2075.570312 1429.851562 C 2075.628906 1440.730469 2076.5 1451.460938 2078.351562 1461.910156 C 2079.011719 1465.589844 2080.261719 1469.019531 2081.128906 1472.621094 C 2083.050781 1480.589844 2085.121094 1488.46875 2088.058594 1496.058594 C 2089.390625 1499.46875 2091.121094 1502.621094 2092.640625 1505.941406 C 2095.949219 1513.171875 2099.46875 1520.238281 2103.699219 1526.980469 C 2105.890625 1530.480469 2108.378906 1533.679688 2110.789062 1537.019531 C 2113.558594 1540.828125 2115.871094 1544.941406 2118.949219 1548.550781 Z M 1705.761719 1959.429688 C 1702.839844 1957.109375 1699.738281 1955.078125 1696.75 1952.871094 C 1680.410156 1940.75 1662.941406 1930.160156 1644.460938 1921.238281 C 1641.160156 1919.648438 1637.910156 1917.941406 1634.558594 1916.460938 C 1629.21875 1914.109375 1623.75 1912.058594 1618.269531 1909.980469 C 1614.648438 1908.621094 1611.050781 1907.230469 1607.378906 1905.988281 C 1601.898438 1904.140625 1596.328125 1902.5 1590.730469 1900.941406 C 1586.878906 1899.871094 1583.011719 1898.878906 1579.121094 1897.949219 C 1573.539062 1896.621094 1567.949219 1895.378906 1562.269531 1894.339844 C 1558.058594 1893.570312 1553.820312 1893 1549.578125 1892.398438 C 1544.050781 1891.621094 1538.550781 1890.78125 1532.929688 1890.28125 C 1527.910156 1889.828125 1522.839844 1889.730469 1517.78125 1889.519531 C 1513.179688 1889.320312 1508.660156 1888.820312 1504.011719 1888.820312 C 1493.339844 1888.820312 1482.808594 1889.410156 1472.410156 1890.421875 L 1585.871094 1519.660156 C 1587.640625 1522.5 1589.980469 1524.910156 1591.890625 1527.640625 C 1595.53125 1532.828125 1599.140625 1537.949219 1603.300781 1542.761719 C 1606.558594 1546.53125 1610.171875 1549.890625 1613.730469 1553.390625 C 1618.371094 1557.960938 1622.898438 1562.550781 1628.039062 1566.628906 C 1632.050781 1569.828125 1636.46875 1572.441406 1640.738281 1575.300781 C 1646.019531 1578.820312 1651.070312 1582.550781 1656.761719 1585.550781 C 1663.949219 1589.351562 1671.640625 1592.191406 1679.328125 1595.03125 C 1682.558594 1596.21875 1685.429688 1597.980469 1688.761719 1599 C 1699.019531 1602.148438 1709.320312 1604.109375 1719.601562 1605.421875 C 1722.328125 1605.78125 1725.03125 1605.789062 1727.75 1606.03125 C 1732.820312 1606.441406 1737.898438 1607.148438 1742.941406 1607.148438 C 1745 1607.148438 1747 1606.730469 1749.058594 1606.660156 C 1753.769531 1606.511719 1758.410156 1606.03125 1763.089844 1605.53125 C 1768.601562 1604.921875 1774.03125 1604.148438 1779.421875 1603.058594 C 1784.371094 1602.070312 1789.230469 1600.890625 1794.101562 1599.488281 C 1799.25 1598 1804.269531 1596.230469 1809.269531 1594.300781 C 1812.199219 1593.171875 1815.269531 1592.550781 1818.148438 1591.269531 Z M 1799.039062 2213.398438 L 1799.039062 2486.179688 L 1208.980469 2486.179688 L 1208.980469 2213.398438 C 1208.980469 2072.449219 1308.390625 1954.410156 1440.75 1925.351562 L 1452.539062 1923.140625 C 1453.378906 1922.988281 1454.25 1922.890625 1455.101562 1922.75 C 1470.289062 1919.949219 1486.710938 1918.460938 1503.96875 1918.460938 C 1520.820312 1918.460938 1537.480469 1920.078125 1553.859375 1922.890625 C 1555.660156 1923.199219 1557.5 1923.378906 1559.289062 1923.730469 C 1566.269531 1925.058594 1573.128906 1926.800781 1579.96875 1928.628906 C 1582.121094 1929.199219 1584.308594 1929.671875 1586.429688 1930.289062 C 1592.980469 1932.199219 1599.410156 1934.46875 1605.808594 1936.828125 C 1608.128906 1937.691406 1610.480469 1938.460938 1612.761719 1939.378906 C 1618.859375 1941.808594 1624.828125 1944.539062 1630.761719 1947.371094 C 1633.230469 1948.558594 1635.730469 1949.691406 1638.160156 1950.941406 C 1643.78125 1953.820312 1649.261719 1956.960938 1654.699219 1960.199219 C 1657.28125 1961.75 1659.871094 1963.269531 1662.398438 1964.890625 C 1667.53125 1968.171875 1672.539062 1971.660156 1677.480469 1975.269531 C 1680.109375 1977.191406 1682.75 1979.121094 1685.308594 1981.128906 C 1689.921875 1984.730469 1694.410156 1988.519531 1698.820312 1992.398438 C 1760.109375 2046.511719 1799.039062 2125.410156 1799.039062 2213.398438 Z M 2241.679688 2515.710938 L 2241.679688 2734.519531 L 1029.53125 2734.519531 L 1029.53125 2515.710938 Z M 1593.941406 1376 C 1606.128906 1336.171875 1633.128906 1303.488281 1669.921875 1283.929688 C 1692.761719 1271.800781 1717.71875 1265.648438 1742.859375 1265.648438 C 1758.199219 1265.648438 1773.621094 1267.941406 1788.730469 1272.550781 C 1807.378906 1278.269531 1824.269531 1287.488281 1839.171875 1299.171875 C 1842.71875 1301.929688 1845.851562 1305.070312 1849.109375 1308.101562 C 1852.730469 1311.480469 1856.289062 1314.898438 1859.578125 1318.628906 C 1862.210938 1321.601562 1864.691406 1324.679688 1867.058594 1327.820312 C 1870.550781 1332.441406 1873.71875 1337.328125 1876.710938 1342.371094 C 1878.429688 1345.289062 1880.328125 1348.109375 1881.859375 1351.121094 C 1885.761719 1358.808594 1889.03125 1366.691406 1891.589844 1374.75 C 1892.78125 1378.519531 1893.441406 1382.421875 1894.339844 1386.269531 C 1895.488281 1391.160156 1896.570312 1396.050781 1897.238281 1401.019531 C 1897.820312 1405.300781 1898.128906 1409.621094 1898.351562 1413.960938 C 1898.601562 1419.078125 1898.558594 1424.199219 1898.300781 1429.328125 C 1898.121094 1433.109375 1898.019531 1436.871094 1897.570312 1440.640625 C 1896.480469 1449.289062 1894.898438 1457.929688 1892.339844 1466.449219 C 1892.261719 1466.710938 1892.25 1466.980469 1892.171875 1467.25 C 1892.019531 1467.71875 1891.769531 1468.148438 1891.621094 1468.621094 C 1888.839844 1477.398438 1885.238281 1485.671875 1881.128906 1493.578125 C 1879.539062 1496.609375 1877.640625 1499.449219 1875.859375 1502.371094 C 1872.738281 1507.488281 1869.429688 1512.449219 1865.789062 1517.121094 C 1863.449219 1520.109375 1861 1523.011719 1858.441406 1525.828125 C 1854.601562 1530.058594 1850.519531 1534 1846.269531 1537.761719 C 1843.589844 1540.140625 1840.960938 1542.570312 1838.101562 1544.789062 C 1834.390625 1547.640625 1830.359375 1549.988281 1826.421875 1552.5 C 1820.800781 1556.058594 1815.078125 1559.359375 1809.171875 1562.148438 C 1804.710938 1564.25 1800.179688 1566.128906 1795.539062 1567.800781 C 1789.75 1569.890625 1783.859375 1571.488281 1777.898438 1572.871094 C 1773.171875 1573.96875 1768.449219 1575.121094 1763.609375 1575.78125 C 1756.550781 1576.710938 1749.410156 1576.859375 1742.261719 1576.808594 C 1738.5 1576.800781 1734.789062 1577.160156 1731.011719 1576.871094 C 1719.769531 1575.960938 1708.511719 1574.058594 1697.410156 1570.660156 C 1686.089844 1567.179688 1675.359375 1562.328125 1665.28125 1556.488281 C 1663.671875 1555.558594 1662.289062 1554.359375 1660.730469 1553.378906 C 1652.660156 1548.320312 1645.03125 1542.648438 1638.050781 1536.238281 C 1635.949219 1534.300781 1634.058594 1532.191406 1632.078125 1530.148438 C 1626.171875 1524.089844 1620.730469 1517.601562 1615.871094 1510.648438 C 1614.089844 1508.101562 1612.359375 1505.53125 1610.738281 1502.878906 C 1605.949219 1495.050781 1601.828125 1486.78125 1598.488281 1478.121094 C 1597.351562 1475.210938 1595.871094 1472.460938 1594.910156 1469.488281 L 1593.738281 1466.191406 C 1585.199219 1437.699219 1584.601562 1406.511719 1593.941406 1376 Z M 2262.941406 1273.070312 C 2348.878906 1274.28125 2417.859375 1345.21875 2416.671875 1431.199219 C 2416.539062 1440.410156 2415.25 1449.308594 2413.578125 1458.058594 C 2412.5 1463.878906 2410.710938 1469.410156 2408.988281 1474.96875 C 2407.828125 1478.699219 2406.820312 1482.480469 2405.390625 1486.078125 C 2403.359375 1491.21875 2400.859375 1496.101562 2398.308594 1500.941406 C 2396.488281 1504.410156 2394.679688 1507.871094 2392.609375 1511.171875 C 2389.628906 1515.921875 2386.351562 1520.429688 2382.890625 1524.808594 C 2380.648438 1527.671875 2378.339844 1530.449219 2375.910156 1533.128906 C 2372.03125 1537.398438 2367.96875 1541.480469 2363.648438 1545.289062 C 2361.050781 1547.601562 2358.328125 1549.738281 2355.578125 1551.859375 C 2351.03125 1555.390625 2346.371094 1558.789062 2341.449219 1561.800781 C 2338.210938 1563.78125 2334.800781 1565.460938 2331.410156 1567.199219 C 2326.628906 1569.671875 2321.839844 1572.148438 2316.808594 1574.128906 C 2312.109375 1575.949219 2307.179688 1577.230469 2302.269531 1578.601562 C 2298.148438 1579.769531 2294.128906 1581.199219 2289.898438 1582.019531 C 2280.480469 1583.820312 2270.828125 1584.910156 2260.910156 1584.921875 C 2260.089844 1584.921875 2259.230469 1584.921875 2258.410156 1584.910156 C 2247.199219 1584.75 2236.238281 1583.269531 2225.53125 1580.769531 C 2222.550781 1580.078125 2219.828125 1578.820312 2216.921875 1577.960938 C 2209.210938 1575.671875 2201.570312 1573.160156 2194.210938 1569.640625 C 2186.441406 1565.949219 2178.828125 1561.929688 2171.820312 1557.058594 L 2171.558594 1556.859375 C 2167.808594 1554.230469 2164.628906 1550.929688 2161.128906 1547.988281 C 2154.808594 1542.75 2149 1537.101562 2143.671875 1531.070312 C 2140.839844 1527.820312 2138.160156 1524.449219 2135.589844 1520.980469 C 2131.660156 1515.679688 2128.210938 1510.101562 2125.011719 1504.371094 C 2122.761719 1500.320312 2120.449219 1496.320312 2118.558594 1492.070312 C 2115.648438 1485.519531 2113.488281 1478.660156 2111.519531 1471.730469 C 2110.460938 1468.070312 2109.070312 1464.558594 2108.289062 1460.800781 C 2106.011719 1449.75 2104.679688 1438.378906 2104.828125 1426.738281 C 2104.980469 1415.261719 2106.640625 1403.988281 2109.230469 1393.011719 C 2110.058594 1389.519531 2111.460938 1386.28125 2112.519531 1382.878906 C 2114.738281 1375.710938 2117.230469 1368.648438 2120.449219 1361.910156 C 2122.378906 1357.890625 2124.671875 1354.089844 2126.921875 1350.261719 C 2130.238281 1344.628906 2133.851562 1339.191406 2137.851562 1334.019531 C 2140.679688 1330.359375 2143.609375 1326.808594 2146.738281 1323.429688 C 2151.761719 1318.03125 2157.238281 1313.058594 2163.050781 1308.410156 C 2189.878906 1286.628906 2223.601562 1273.050781 2260.671875 1273.050781 C 2261.410156 1273.050781 2262.171875 1273.050781 2262.941406 1273.070312 Z M 2937.058594 2369.261719 L 2883.070312 2396.480469 L 2899.070312 2196.339844 L 2773.070312 2154.570312 L 2820.671875 2130.578125 L 2966.859375 2167.351562 Z M 2497.988281 2398.519531 L 2668.398438 2504.679688 L 2614.421875 2531.898438 L 2434.359375 2435.789062 L 2491.761719 2296.390625 L 2539.359375 2272.398438 Z M 2875.460938 2102.949219 L 2788.640625 1930.730469 L 2628.769531 2011.320312 L 2559.800781 1874.53125 L 2635.300781 1836.449219 L 2443.410156 1455.949219 C 2444.589844 1447.910156 2446.078125 1439.960938 2446.199219 1431.621094 C 2447.621094 1329.339844 2365.609375 1244.980469 2263.328125 1243.539062 C 2223.308594 1242.351562 2186.121094 1254.96875 2155.320312 1276.539062 L 1851.53125 1272.058594 C 1835.171875 1260.21875 1817.238281 1250.410156 1797.351562 1244.328125 C 1750.128906 1229.828125 1699.839844 1234.621094 1656.078125 1257.871094 C 1612.320312 1281.109375 1580.21875 1319.980469 1565.71875 1367.351562 C 1554.058594 1405.429688 1555.621094 1444.308594 1567.269531 1479.519531 L 1440.050781 1895.210938 C 1291.628906 1925.011719 1179.449219 2056.328125 1179.449219 2213.398438 L 1179.449219 2486.179688 L 1000 2486.179688 L 1000 2764.050781 L 2271.210938 2764.050781 L 2271.210938 2486.179688 L 1828.570312 2486.179688 L 1828.570312 2213.398438 C 1828.570312 2122.289062 1790.699219 2039.949219 1730.039062 1980.949219 L 1854.128906 1574.5 L 2151.710938 1578.53125 C 2158.558594 1583.550781 2166 1587.660156 2173.519531 1591.71875 L 2365.570312 1972.511719 L 2441.050781 1934.429688 L 2509.988281 2071.199219 L 2350.109375 2151.800781 L 2436.96875 2324 L 2451.441406 2316.699219 L 2396.898438 2449.25 L 2614.03125 2565.160156 L 2728.621094 2507.410156 L 2533.289062 2385.710938 L 2576.589844 2253.609375 L 2735.828125 2173.339844 L 2867.769531 2217.070312 L 2849.46875 2446.5 L 2964.050781 2388.710938 L 3000 2145.238281 L 2860.96875 2110.25 L 2875.460938 2102.949219 "/>
</clipPath>
<linearGradient id="linear-pattern-4" gradientUnits="userSpaceOnUse" x1="0.144515" y1="0" x2="0.865408" y2="0" gradientTransform="matrix(2451.28, -2451.28, 2451.28, 2451.28, 827.496, 3300.04)">
<stop offset="0" stop-color="rgb(10.932922%, 79.078674%, 90.605164%)" stop-opacity="1"/>
<stop offset="0.00390625" stop-color="rgb(11.13739%, 78.846741%, 90.635681%)" stop-opacity="1"/>
<stop offset="0.0078125" stop-color="rgb(11.343384%, 78.614807%, 90.667725%)" stop-opacity="1"/>
<stop offset="0.0117188" stop-color="rgb(11.547852%, 78.382874%, 90.698242%)" stop-opacity="1"/>
<stop offset="0.015625" stop-color="rgb(11.753845%, 78.15094%, 90.72876%)" stop-opacity="1"/>
<stop offset="0.0195313" stop-color="rgb(11.958313%, 77.919006%, 90.759277%)" stop-opacity="1"/>
<stop offset="0.0234375" stop-color="rgb(12.164307%, 77.687073%, 90.791321%)" stop-opacity="1"/>
<stop offset="0.0273438" stop-color="rgb(12.3703%, 77.455139%, 90.821838%)" stop-opacity="1"/>
<stop offset="0.03125" stop-color="rgb(12.576294%, 77.223206%, 90.852356%)" stop-opacity="1"/>
<stop offset="0.0351562" stop-color="rgb(12.780762%, 76.991272%, 90.882874%)" stop-opacity="1"/>
<stop offset="0.0390625" stop-color="rgb(12.986755%, 76.759338%, 90.914917%)" stop-opacity="1"/>
<stop offset="0.0429687" stop-color="rgb(13.191223%, 76.527405%, 90.945435%)" stop-opacity="1"/>
<stop offset="0.046875" stop-color="rgb(13.397217%, 76.295471%, 90.977478%)" stop-opacity="1"/>
<stop offset="0.0507812" stop-color="rgb(13.601685%, 76.063538%, 91.007996%)" stop-opacity="1"/>
<stop offset="0.0546875" stop-color="rgb(13.807678%, 75.831604%, 91.038513%)" stop-opacity="1"/>
<stop offset="0.0585937" stop-color="rgb(14.013672%, 75.59967%, 91.069031%)" stop-opacity="1"/>
<stop offset="0.0625" stop-color="rgb(14.219666%, 75.367737%, 91.101074%)" stop-opacity="1"/>
<stop offset="0.0664062" stop-color="rgb(14.424133%, 75.135803%, 91.131592%)" stop-opacity="1"/>
<stop offset="0.0703125" stop-color="rgb(14.630127%, 74.90387%, 91.162109%)" stop-opacity="1"/>
<stop offset="0.0742188" stop-color="rgb(14.834595%, 74.671936%, 91.192627%)" stop-opacity="1"/>
<stop offset="0.078125" stop-color="rgb(15.040588%, 74.440002%, 91.22467%)" stop-opacity="1"/>
<stop offset="0.0820313" stop-color="rgb(15.245056%, 74.208069%, 91.255188%)" stop-opacity="1"/>
<stop offset="0.0859375" stop-color="rgb(15.45105%, 73.976135%, 91.285706%)" stop-opacity="1"/>
<stop offset="0.0898438" stop-color="rgb(15.655518%, 73.744202%, 91.316223%)" stop-opacity="1"/>
<stop offset="0.09375" stop-color="rgb(15.861511%, 73.512268%, 91.348267%)" stop-opacity="1"/>
<stop offset="0.0976563" stop-color="rgb(16.067505%, 73.280334%, 91.378784%)" stop-opacity="1"/>
<stop offset="0.101563" stop-color="rgb(16.273499%, 73.048401%, 91.409302%)" stop-opacity="1"/>
<stop offset="0.105469" stop-color="rgb(16.477966%, 72.816467%, 91.439819%)" stop-opacity="1"/>
<stop offset="0.109375" stop-color="rgb(16.68396%, 72.584534%, 91.471863%)" stop-opacity="1"/>
<stop offset="0.113281" stop-color="rgb(16.888428%, 72.3526%, 91.50238%)" stop-opacity="1"/>
<stop offset="0.117188" stop-color="rgb(17.094421%, 72.120667%, 91.532898%)" stop-opacity="1"/>
<stop offset="0.121094" stop-color="rgb(17.298889%, 71.888733%, 91.563416%)" stop-opacity="1"/>
<stop offset="0.125" stop-color="rgb(17.504883%, 71.656799%, 91.595459%)" stop-opacity="1"/>
<stop offset="0.128906" stop-color="rgb(17.710876%, 71.424866%, 91.625977%)" stop-opacity="1"/>
<stop offset="0.132812" stop-color="rgb(17.91687%, 71.192932%, 91.656494%)" stop-opacity="1"/>
<stop offset="0.136719" stop-color="rgb(18.121338%, 70.960999%, 91.687012%)" stop-opacity="1"/>
<stop offset="0.140625" stop-color="rgb(18.327332%, 70.729065%, 91.719055%)" stop-opacity="1"/>
<stop offset="0.144531" stop-color="rgb(18.531799%, 70.497131%, 91.749573%)" stop-opacity="1"/>
<stop offset="0.148438" stop-color="rgb(18.737793%, 70.266724%, 91.78009%)" stop-opacity="1"/>
<stop offset="0.152344" stop-color="rgb(18.942261%, 70.03479%, 91.810608%)" stop-opacity="1"/>
<stop offset="0.15625" stop-color="rgb(19.148254%, 69.802856%, 91.842651%)" stop-opacity="1"/>
<stop offset="0.160156" stop-color="rgb(19.352722%, 69.570923%, 91.873169%)" stop-opacity="1"/>
<stop offset="0.164063" stop-color="rgb(19.558716%, 69.338989%, 91.903687%)" stop-opacity="1"/>
<stop offset="0.167969" stop-color="rgb(19.764709%, 69.107056%, 91.934204%)" stop-opacity="1"/>
<stop offset="0.171875" stop-color="rgb(19.970703%, 68.875122%, 91.966248%)" stop-opacity="1"/>
<stop offset="0.175781" stop-color="rgb(20.175171%, 68.643188%, 91.996765%)" stop-opacity="1"/>
<stop offset="0.179688" stop-color="rgb(20.381165%, 68.411255%, 92.027283%)" stop-opacity="1"/>
<stop offset="0.183594" stop-color="rgb(20.585632%, 68.179321%, 92.0578%)" stop-opacity="1"/>
<stop offset="0.1875" stop-color="rgb(20.791626%, 67.947388%, 92.089844%)" stop-opacity="1"/>
<stop offset="0.191406" stop-color="rgb(20.996094%, 67.715454%, 92.120361%)" stop-opacity="1"/>
<stop offset="0.195312" stop-color="rgb(21.202087%, 67.483521%, 92.152405%)" stop-opacity="1"/>
<stop offset="0.199219" stop-color="rgb(21.408081%, 67.251587%, 92.182922%)" stop-opacity="1"/>
<stop offset="0.203125" stop-color="rgb(21.614075%, 67.019653%, 92.21344%)" stop-opacity="1"/>
<stop offset="0.207031" stop-color="rgb(21.818542%, 66.78772%, 92.243958%)" stop-opacity="1"/>
<stop offset="0.210938" stop-color="rgb(22.024536%, 66.555786%, 92.276001%)" stop-opacity="1"/>
<stop offset="0.214844" stop-color="rgb(22.229004%, 66.323853%, 92.306519%)" stop-opacity="1"/>
<stop offset="0.21875" stop-color="rgb(22.434998%, 66.091919%, 92.337036%)" stop-opacity="1"/>
<stop offset="0.222656" stop-color="rgb(22.639465%, 65.859985%, 92.367554%)" stop-opacity="1"/>
<stop offset="0.226563" stop-color="rgb(22.845459%, 65.628052%, 92.399597%)" stop-opacity="1"/>
<stop offset="0.230469" stop-color="rgb(23.049927%, 65.396118%, 92.430115%)" stop-opacity="1"/>
<stop offset="0.234375" stop-color="rgb(23.25592%, 65.164185%, 92.460632%)" stop-opacity="1"/>
<stop offset="0.238281" stop-color="rgb(23.461914%, 64.932251%, 92.49115%)" stop-opacity="1"/>
<stop offset="0.242188" stop-color="rgb(23.667908%, 64.700317%, 92.523193%)" stop-opacity="1"/>
<stop offset="0.246094" stop-color="rgb(23.872375%, 64.468384%, 92.553711%)" stop-opacity="1"/>
<stop offset="0.25" stop-color="rgb(24.078369%, 64.23645%, 92.584229%)" stop-opacity="1"/>
<stop offset="0.253906" stop-color="rgb(24.282837%, 64.004517%, 92.614746%)" stop-opacity="1"/>
<stop offset="0.257813" stop-color="rgb(24.488831%, 63.772583%, 92.64679%)" stop-opacity="1"/>
<stop offset="0.261719" stop-color="rgb(24.693298%, 63.540649%, 92.677307%)" stop-opacity="1"/>
<stop offset="0.265625" stop-color="rgb(24.899292%, 63.308716%, 92.707825%)" stop-opacity="1"/>
<stop offset="0.269531" stop-color="rgb(25.105286%, 63.076782%, 92.738342%)" stop-opacity="1"/>
<stop offset="0.273438" stop-color="rgb(25.311279%, 62.844849%, 92.770386%)" stop-opacity="1"/>
<stop offset="0.277344" stop-color="rgb(25.515747%, 62.612915%, 92.800903%)" stop-opacity="1"/>
<stop offset="0.28125" stop-color="rgb(25.721741%, 62.380981%, 92.831421%)" stop-opacity="1"/>
<stop offset="0.285156" stop-color="rgb(25.926208%, 62.149048%, 92.861938%)" stop-opacity="1"/>
<stop offset="0.289063" stop-color="rgb(26.132202%, 61.917114%, 92.893982%)" stop-opacity="1"/>
<stop offset="0.292969" stop-color="rgb(26.33667%, 61.685181%, 92.9245%)" stop-opacity="1"/>
<stop offset="0.296875" stop-color="rgb(26.542664%, 61.453247%, 92.955017%)" stop-opacity="1"/>
<stop offset="0.300781" stop-color="rgb(26.747131%, 61.221313%, 92.985535%)" stop-opacity="1"/>
<stop offset="0.304688" stop-color="rgb(26.953125%, 60.98938%, 93.017578%)" stop-opacity="1"/>
<stop offset="0.308594" stop-color="rgb(27.159119%, 60.757446%, 93.048096%)" stop-opacity="1"/>
<stop offset="0.3125" stop-color="rgb(27.365112%, 60.525513%, 93.078613%)" stop-opacity="1"/>
<stop offset="0.316406" stop-color="rgb(27.56958%, 60.293579%, 93.109131%)" stop-opacity="1"/>
<stop offset="0.320312" stop-color="rgb(27.775574%, 60.061646%, 93.141174%)" stop-opacity="1"/>
<stop offset="0.324219" stop-color="rgb(27.980042%, 59.829712%, 93.171692%)" stop-opacity="1"/>
<stop offset="0.328125" stop-color="rgb(28.186035%, 59.597778%, 93.203735%)" stop-opacity="1"/>
<stop offset="0.332031" stop-color="rgb(28.390503%, 59.365845%, 93.234253%)" stop-opacity="1"/>
<stop offset="0.335938" stop-color="rgb(28.596497%, 59.133911%, 93.264771%)" stop-opacity="1"/>
<stop offset="0.339844" stop-color="rgb(28.80249%, 58.901978%, 93.295288%)" stop-opacity="1"/>
<stop offset="0.34375" stop-color="rgb(29.008484%, 58.670044%, 93.327332%)" stop-opacity="1"/>
<stop offset="0.347656" stop-color="rgb(29.212952%, 58.43811%, 93.357849%)" stop-opacity="1"/>
<stop offset="0.351563" stop-color="rgb(29.418945%, 58.207703%, 93.388367%)" stop-opacity="1"/>
<stop offset="0.355469" stop-color="rgb(29.623413%, 57.975769%, 93.418884%)" stop-opacity="1"/>
<stop offset="0.359375" stop-color="rgb(29.829407%, 57.743835%, 93.450928%)" stop-opacity="1"/>
<stop offset="0.363281" stop-color="rgb(30.033875%, 57.511902%, 93.481445%)" stop-opacity="1"/>
<stop offset="0.367188" stop-color="rgb(30.239868%, 57.279968%, 93.511963%)" stop-opacity="1"/>
<stop offset="0.371094" stop-color="rgb(30.444336%, 57.048035%, 93.54248%)" stop-opacity="1"/>
<stop offset="0.375" stop-color="rgb(30.65033%, 56.816101%, 93.574524%)" stop-opacity="1"/>
<stop offset="0.378906" stop-color="rgb(30.856323%, 56.584167%, 93.605042%)" stop-opacity="1"/>
<stop offset="0.382813" stop-color="rgb(31.062317%, 56.352234%, 93.635559%)" stop-opacity="1"/>
<stop offset="0.386719" stop-color="rgb(31.266785%, 56.1203%, 93.666077%)" stop-opacity="1"/>
<stop offset="0.390625" stop-color="rgb(31.472778%, 55.888367%, 93.69812%)" stop-opacity="1"/>
<stop offset="0.394531" stop-color="rgb(31.677246%, 55.656433%, 93.728638%)" stop-opacity="1"/>
<stop offset="0.398438" stop-color="rgb(31.88324%, 55.4245%, 93.759155%)" stop-opacity="1"/>
<stop offset="0.402344" stop-color="rgb(32.087708%, 55.192566%, 93.789673%)" stop-opacity="1"/>
<stop offset="0.40625" stop-color="rgb(32.293701%, 54.960632%, 93.821716%)" stop-opacity="1"/>
<stop offset="0.410156" stop-color="rgb(32.499695%, 54.728699%, 93.852234%)" stop-opacity="1"/>
<stop offset="0.414063" stop-color="rgb(32.705688%, 54.496765%, 93.882751%)" stop-opacity="1"/>
<stop offset="0.417969" stop-color="rgb(32.910156%, 54.264832%, 93.913269%)" stop-opacity="1"/>
<stop offset="0.421875" stop-color="rgb(33.11615%, 54.032898%, 93.945312%)" stop-opacity="1"/>
<stop offset="0.425781" stop-color="rgb(33.320618%, 53.800964%, 93.97583%)" stop-opacity="1"/>
<stop offset="0.429688" stop-color="rgb(33.526611%, 53.569031%, 94.006348%)" stop-opacity="1"/>
<stop offset="0.433594" stop-color="rgb(33.731079%, 53.337097%, 94.036865%)" stop-opacity="1"/>
<stop offset="0.4375" stop-color="rgb(33.937073%, 53.105164%, 94.068909%)" stop-opacity="1"/>
<stop offset="0.441406" stop-color="rgb(34.141541%, 52.87323%, 94.099426%)" stop-opacity="1"/>
<stop offset="0.445312" stop-color="rgb(34.347534%, 52.641296%, 94.129944%)" stop-opacity="1"/>
<stop offset="0.449219" stop-color="rgb(34.553528%, 52.409363%, 94.160461%)" stop-opacity="1"/>
<stop offset="0.453125" stop-color="rgb(34.759521%, 52.177429%, 94.192505%)" stop-opacity="1"/>
<stop offset="0.457031" stop-color="rgb(34.963989%, 51.945496%, 94.223022%)" stop-opacity="1"/>
<stop offset="0.460938" stop-color="rgb(35.169983%, 51.713562%, 94.255066%)" stop-opacity="1"/>
<stop offset="0.464844" stop-color="rgb(35.374451%, 51.481628%, 94.285583%)" stop-opacity="1"/>
<stop offset="0.46875" stop-color="rgb(35.580444%, 51.249695%, 94.316101%)" stop-opacity="1"/>
<stop offset="0.472656" stop-color="rgb(35.784912%, 51.017761%, 94.346619%)" stop-opacity="1"/>
<stop offset="0.476563" stop-color="rgb(35.990906%, 50.785828%, 94.378662%)" stop-opacity="1"/>
<stop offset="0.480469" stop-color="rgb(36.196899%, 50.553894%, 94.40918%)" stop-opacity="1"/>
<stop offset="0.484375" stop-color="rgb(36.402893%, 50.32196%, 94.439697%)" stop-opacity="1"/>
<stop offset="0.488281" stop-color="rgb(36.607361%, 50.090027%, 94.470215%)" stop-opacity="1"/>
<stop offset="0.492188" stop-color="rgb(36.813354%, 49.858093%, 94.502258%)" stop-opacity="1"/>
<stop offset="0.496094" stop-color="rgb(37.017822%, 49.62616%, 94.532776%)" stop-opacity="1"/>
<stop offset="0.5" stop-color="rgb(37.223816%, 49.394226%, 94.563293%)" stop-opacity="1"/>
<stop offset="0.503906" stop-color="rgb(37.428284%, 49.162292%, 94.593811%)" stop-opacity="1"/>
<stop offset="0.507813" stop-color="rgb(37.634277%, 48.930359%, 94.625854%)" stop-opacity="1"/>
<stop offset="0.511719" stop-color="rgb(37.838745%, 48.698425%, 94.656372%)" stop-opacity="1"/>
<stop offset="0.515625" stop-color="rgb(38.044739%, 48.466492%, 94.68689%)" stop-opacity="1"/>
<stop offset="0.519531" stop-color="rgb(38.250732%, 48.234558%, 94.717407%)" stop-opacity="1"/>
<stop offset="0.523438" stop-color="rgb(38.456726%, 48.002625%, 94.749451%)" stop-opacity="1"/>
<stop offset="0.527344" stop-color="rgb(38.661194%, 47.770691%, 94.779968%)" stop-opacity="1"/>
<stop offset="0.53125" stop-color="rgb(38.867188%, 47.538757%, 94.810486%)" stop-opacity="1"/>
<stop offset="0.535156" stop-color="rgb(39.071655%, 47.306824%, 94.841003%)" stop-opacity="1"/>
<stop offset="0.539063" stop-color="rgb(39.277649%, 47.07489%, 94.873047%)" stop-opacity="1"/>
<stop offset="0.542969" stop-color="rgb(39.482117%, 46.842957%, 94.903564%)" stop-opacity="1"/>
<stop offset="0.546875" stop-color="rgb(39.68811%, 46.611023%, 94.934082%)" stop-opacity="1"/>
<stop offset="0.550781" stop-color="rgb(39.894104%, 46.379089%, 94.9646%)" stop-opacity="1"/>
<stop offset="0.554688" stop-color="rgb(40.100098%, 46.147156%, 94.996643%)" stop-opacity="1"/>
<stop offset="0.558594" stop-color="rgb(40.304565%, 45.915222%, 95.027161%)" stop-opacity="1"/>
<stop offset="0.5625" stop-color="rgb(40.510559%, 45.684814%, 95.057678%)" stop-opacity="1"/>
<stop offset="0.566406" stop-color="rgb(40.715027%, 45.452881%, 95.088196%)" stop-opacity="1"/>
<stop offset="0.570313" stop-color="rgb(40.921021%, 45.220947%, 95.120239%)" stop-opacity="1"/>
<stop offset="0.574219" stop-color="rgb(41.125488%, 44.989014%, 95.150757%)" stop-opacity="1"/>
<stop offset="0.578125" stop-color="rgb(41.331482%, 44.75708%, 95.181274%)" stop-opacity="1"/>
<stop offset="0.582031" stop-color="rgb(41.53595%, 44.525146%, 95.211792%)" stop-opacity="1"/>
<stop offset="0.585938" stop-color="rgb(41.741943%, 44.293213%, 95.243835%)" stop-opacity="1"/>
<stop offset="0.589844" stop-color="rgb(41.947937%, 44.061279%, 95.274353%)" stop-opacity="1"/>
<stop offset="0.59375" stop-color="rgb(42.153931%, 43.829346%, 95.304871%)" stop-opacity="1"/>
<stop offset="0.597656" stop-color="rgb(42.358398%, 43.597412%, 95.335388%)" stop-opacity="1"/>
<stop offset="0.601563" stop-color="rgb(42.564392%, 43.365479%, 95.367432%)" stop-opacity="1"/>
<stop offset="0.605469" stop-color="rgb(42.76886%, 43.133545%, 95.397949%)" stop-opacity="1"/>
<stop offset="0.609375" stop-color="rgb(42.974854%, 42.901611%, 95.429993%)" stop-opacity="1"/>
<stop offset="0.613281" stop-color="rgb(43.179321%, 42.669678%, 95.46051%)" stop-opacity="1"/>
<stop offset="0.617188" stop-color="rgb(43.385315%, 42.437744%, 95.491028%)" stop-opacity="1"/>
<stop offset="0.621094" stop-color="rgb(43.591309%, 42.205811%, 95.521545%)" stop-opacity="1"/>
<stop offset="0.625" stop-color="rgb(43.797302%, 41.973877%, 95.553589%)" stop-opacity="1"/>
<stop offset="0.628906" stop-color="rgb(44.00177%, 41.741943%, 95.584106%)" stop-opacity="1"/>
<stop offset="0.632812" stop-color="rgb(44.207764%, 41.51001%, 95.614624%)" stop-opacity="1"/>
<stop offset="0.636719" stop-color="rgb(44.412231%, 41.278076%, 95.645142%)" stop-opacity="1"/>
<stop offset="0.640625" stop-color="rgb(44.618225%, 41.046143%, 95.677185%)" stop-opacity="1"/>
<stop offset="0.644531" stop-color="rgb(44.822693%, 40.814209%, 95.707703%)" stop-opacity="1"/>
<stop offset="0.648438" stop-color="rgb(45.028687%, 40.582275%, 95.73822%)" stop-opacity="1"/>
<stop offset="0.652344" stop-color="rgb(45.23468%, 40.350342%, 95.768738%)" stop-opacity="1"/>
<stop offset="0.65625" stop-color="rgb(45.440674%, 40.118408%, 95.800781%)" stop-opacity="1"/>
<stop offset="0.660156" stop-color="rgb(45.645142%, 39.886475%, 95.831299%)" stop-opacity="1"/>
<stop offset="0.664062" stop-color="rgb(45.851135%, 39.654541%, 95.861816%)" stop-opacity="1"/>
<stop offset="0.667969" stop-color="rgb(46.055603%, 39.422607%, 95.892334%)" stop-opacity="1"/>
<stop offset="0.671875" stop-color="rgb(46.261597%, 39.190674%, 95.924377%)" stop-opacity="1"/>
<stop offset="0.675781" stop-color="rgb(46.466064%, 38.95874%, 95.954895%)" stop-opacity="1"/>
<stop offset="0.679688" stop-color="rgb(46.672058%, 38.726807%, 95.985413%)" stop-opacity="1"/>
<stop offset="0.683594" stop-color="rgb(46.876526%, 38.494873%, 96.01593%)" stop-opacity="1"/>
<stop offset="0.6875" stop-color="rgb(47.08252%, 38.262939%, 96.047974%)" stop-opacity="1"/>
<stop offset="0.691406" stop-color="rgb(47.288513%, 38.031006%, 96.078491%)" stop-opacity="1"/>
<stop offset="0.695312" stop-color="rgb(47.494507%, 37.799072%, 96.109009%)" stop-opacity="1"/>
<stop offset="0.699219" stop-color="rgb(47.698975%, 37.567139%, 96.139526%)" stop-opacity="1"/>
<stop offset="0.703125" stop-color="rgb(47.904968%, 37.335205%, 96.17157%)" stop-opacity="1"/>
<stop offset="0.707031" stop-color="rgb(48.109436%, 37.103271%, 96.202087%)" stop-opacity="1"/>
<stop offset="0.710938" stop-color="rgb(48.31543%, 36.871338%, 96.232605%)" stop-opacity="1"/>
<stop offset="0.714844" stop-color="rgb(48.519897%, 36.639404%, 96.263123%)" stop-opacity="1"/>
<stop offset="0.71875" stop-color="rgb(48.725891%, 36.407471%, 96.295166%)" stop-opacity="1"/>
<stop offset="0.722656" stop-color="rgb(48.931885%, 36.175537%, 96.325684%)" stop-opacity="1"/>
<stop offset="0.726562" stop-color="rgb(49.137878%, 35.943604%, 96.356201%)" stop-opacity="1"/>
<stop offset="0.730469" stop-color="rgb(49.342346%, 35.71167%, 96.386719%)" stop-opacity="1"/>
<stop offset="0.734375" stop-color="rgb(49.54834%, 35.479736%, 96.418762%)" stop-opacity="1"/>
<stop offset="0.738281" stop-color="rgb(49.752808%, 35.247803%, 96.44928%)" stop-opacity="1"/>
<stop offset="0.742188" stop-color="rgb(49.958801%, 35.015869%, 96.481323%)" stop-opacity="1"/>
<stop offset="0.746094" stop-color="rgb(50.163269%, 34.783936%, 96.511841%)" stop-opacity="1"/>
<stop offset="0.75" stop-color="rgb(50.369263%, 34.552002%, 96.542358%)" stop-opacity="1"/>
<stop offset="0.753906" stop-color="rgb(50.57373%, 34.320068%, 96.572876%)" stop-opacity="1"/>
<stop offset="0.757812" stop-color="rgb(50.779724%, 34.088135%, 96.604919%)" stop-opacity="1"/>
<stop offset="0.761719" stop-color="rgb(50.985718%, 33.856201%, 96.635437%)" stop-opacity="1"/>
<stop offset="0.765625" stop-color="rgb(51.191711%, 33.625793%, 96.665955%)" stop-opacity="1"/>
<stop offset="0.769531" stop-color="rgb(51.396179%, 33.39386%, 96.696472%)" stop-opacity="1"/>
<stop offset="0.773438" stop-color="rgb(51.602173%, 33.161926%, 96.728516%)" stop-opacity="1"/>
<stop offset="0.777344" stop-color="rgb(51.806641%, 32.929993%, 96.759033%)" stop-opacity="1"/>
<stop offset="0.78125" stop-color="rgb(52.012634%, 32.698059%, 96.789551%)" stop-opacity="1"/>
<stop offset="0.785156" stop-color="rgb(52.217102%, 32.466125%, 96.820068%)" stop-opacity="1"/>
<stop offset="0.789062" stop-color="rgb(52.423096%, 32.234192%, 96.852112%)" stop-opacity="1"/>
<stop offset="0.792969" stop-color="rgb(52.629089%, 32.002258%, 96.882629%)" stop-opacity="1"/>
<stop offset="0.796875" stop-color="rgb(52.835083%, 31.770325%, 96.913147%)" stop-opacity="1"/>
<stop offset="0.800781" stop-color="rgb(53.039551%, 31.538391%, 96.943665%)" stop-opacity="1"/>
<stop offset="0.804688" stop-color="rgb(53.245544%, 31.306458%, 96.975708%)" stop-opacity="1"/>
<stop offset="0.808594" stop-color="rgb(53.450012%, 31.074524%, 97.006226%)" stop-opacity="1"/>
<stop offset="0.8125" stop-color="rgb(53.656006%, 30.84259%, 97.036743%)" stop-opacity="1"/>
<stop offset="0.816406" stop-color="rgb(53.860474%, 30.610657%, 97.067261%)" stop-opacity="1"/>
<stop offset="0.820313" stop-color="rgb(54.066467%, 30.378723%, 97.099304%)" stop-opacity="1"/>
<stop offset="0.824219" stop-color="rgb(54.270935%, 30.14679%, 97.129822%)" stop-opacity="1"/>
<stop offset="0.828125" stop-color="rgb(54.476929%, 29.914856%, 97.160339%)" stop-opacity="1"/>
<stop offset="0.832031" stop-color="rgb(54.682922%, 29.682922%, 97.190857%)" stop-opacity="1"/>
<stop offset="0.835938" stop-color="rgb(54.888916%, 29.450989%, 97.2229%)" stop-opacity="1"/>
<stop offset="0.839844" stop-color="rgb(55.093384%, 29.219055%, 97.253418%)" stop-opacity="1"/>
<stop offset="0.84375" stop-color="rgb(55.299377%, 28.987122%, 97.283936%)" stop-opacity="1"/>
<stop offset="0.847656" stop-color="rgb(55.503845%, 28.755188%, 97.314453%)" stop-opacity="1"/>
<stop offset="0.851563" stop-color="rgb(55.709839%, 28.523254%, 97.346497%)" stop-opacity="1"/>
<stop offset="0.855469" stop-color="rgb(55.914307%, 28.291321%, 97.377014%)" stop-opacity="1"/>
<stop offset="0.859375" stop-color="rgb(56.1203%, 28.059387%, 97.407532%)" stop-opacity="1"/>
<stop offset="0.863281" stop-color="rgb(56.326294%, 27.827454%, 97.438049%)" stop-opacity="1"/>
<stop offset="0.867188" stop-color="rgb(56.532288%, 27.59552%, 97.470093%)" stop-opacity="1"/>
<stop offset="0.871094" stop-color="rgb(56.736755%, 27.363586%, 97.50061%)" stop-opacity="1"/>
<stop offset="0.875" stop-color="rgb(56.942749%, 27.131653%, 97.532654%)" stop-opacity="1"/>
<stop offset="0.878906" stop-color="rgb(57.147217%, 26.899719%, 97.563171%)" stop-opacity="1"/>
<stop offset="0.882812" stop-color="rgb(57.35321%, 26.667786%, 97.593689%)" stop-opacity="1"/>
<stop offset="0.886719" stop-color="rgb(57.557678%, 26.435852%, 97.624207%)" stop-opacity="1"/>
<stop offset="0.890625" stop-color="rgb(57.763672%, 26.203918%, 97.65625%)" stop-opacity="1"/>
<stop offset="0.894531" stop-color="rgb(57.96814%, 25.971985%, 97.686768%)" stop-opacity="1"/>
<stop offset="0.898437" stop-color="rgb(58.174133%, 25.740051%, 97.717285%)" stop-opacity="1"/>
<stop offset="0.902344" stop-color="rgb(58.380127%, 25.508118%, 97.747803%)" stop-opacity="1"/>
<stop offset="0.90625" stop-color="rgb(58.586121%, 25.276184%, 97.779846%)" stop-opacity="1"/>
<stop offset="0.910156" stop-color="rgb(58.790588%, 25.04425%, 97.810364%)" stop-opacity="1"/>
<stop offset="0.914062" stop-color="rgb(58.996582%, 24.812317%, 97.840881%)" stop-opacity="1"/>
<stop offset="0.917969" stop-color="rgb(59.20105%, 24.580383%, 97.871399%)" stop-opacity="1"/>
<stop offset="0.921875" stop-color="rgb(59.407043%, 24.34845%, 97.903442%)" stop-opacity="1"/>
<stop offset="0.925781" stop-color="rgb(59.611511%, 24.116516%, 97.93396%)" stop-opacity="1"/>
<stop offset="0.929687" stop-color="rgb(59.817505%, 23.884583%, 97.964478%)" stop-opacity="1"/>
<stop offset="0.933594" stop-color="rgb(60.023499%, 23.652649%, 97.994995%)" stop-opacity="1"/>
<stop offset="0.9375" stop-color="rgb(60.229492%, 23.420715%, 98.027039%)" stop-opacity="1"/>
<stop offset="0.941406" stop-color="rgb(60.43396%, 23.188782%, 98.057556%)" stop-opacity="1"/>
<stop offset="0.945312" stop-color="rgb(60.639954%, 22.956848%, 98.088074%)" stop-opacity="1"/>
<stop offset="0.949219" stop-color="rgb(60.844421%, 22.724915%, 98.118591%)" stop-opacity="1"/>
<stop offset="0.953125" stop-color="rgb(61.050415%, 22.492981%, 98.150635%)" stop-opacity="1"/>
<stop offset="0.957031" stop-color="rgb(61.254883%, 22.261047%, 98.181152%)" stop-opacity="1"/>
<stop offset="0.960938" stop-color="rgb(61.460876%, 22.029114%, 98.21167%)" stop-opacity="1"/>
<stop offset="0.964844" stop-color="rgb(61.665344%, 21.79718%, 98.242188%)" stop-opacity="1"/>
<stop offset="0.96875" stop-color="rgb(61.871338%, 21.565247%, 98.274231%)" stop-opacity="1"/>
<stop offset="0.972656" stop-color="rgb(62.077332%, 21.333313%, 98.304749%)" stop-opacity="1"/>
<stop offset="0.976562" stop-color="rgb(62.283325%, 21.102905%, 98.335266%)" stop-opacity="1"/>
<stop offset="0.980469" stop-color="rgb(62.487793%, 20.870972%, 98.365784%)" stop-opacity="1"/>
<stop offset="0.984375" stop-color="rgb(62.693787%, 20.639038%, 98.397827%)" stop-opacity="1"/>
<stop offset="0.988281" stop-color="rgb(62.898254%, 20.407104%, 98.428345%)" stop-opacity="1"/>
<stop offset="0.992188" stop-color="rgb(63.104248%, 20.175171%, 98.458862%)" stop-opacity="1"/>
<stop offset="0.996094" stop-color="rgb(63.308716%, 19.943237%, 98.48938%)" stop-opacity="1"/>
<stop offset="1" stop-color="rgb(63.514709%, 19.711304%, 98.521423%)" stop-opacity="1"/>
</linearGradient>
</defs>
<rect x="-400" y="-400" width="4800" height="4800" fill="rgb(100%, 100%, 100%)" fill-opacity="1"/>
<g clip-path="url(#clip-0)">
<g clip-path="url(#clip-1)">
<g clip-path="url(#clip-2)">
<path fill-rule="nonzero" fill="url(#linear-pattern-0)" d="M 1133.046875 2202.253906 L 1504.003906 2573.214844 L 1874.964844 2202.253906 L 1504.003906 1831.296875 Z M 1133.046875 2202.253906 "/>
</g>
</g>
</g>
<g clip-path="url(#clip-3)">
<g clip-path="url(#clip-4)">
<g clip-path="url(#clip-5)">
<path fill-rule="nonzero" fill="url(#linear-pattern-1)" d="M 1332.574219 2202.265625 L 1504.003906 2373.695312 L 1675.433594 2202.265625 L 1504.003906 2030.835938 Z M 1332.574219 2202.265625 "/>
</g>
</g>
</g>
<g clip-path="url(#clip-6)">
<g clip-path="url(#clip-7)">
<g clip-path="url(#clip-8)">
<path fill-rule="nonzero" fill="url(#linear-pattern-2)" d="M 1567.203125 1420.203125 L 1746.628906 1599.628906 L 1926.054688 1420.203125 L 1746.628906 1240.78125 Z M 1567.203125 1420.203125 "/>
</g>
</g>
</g>
<g clip-path="url(#clip-9)">
<g clip-path="url(#clip-10)">
<g clip-path="url(#clip-11)">
<path fill-rule="nonzero" fill="url(#linear-pattern-3)" d="M 2088.644531 1428.984375 L 2260.558594 1600.898438 L 2432.476562 1428.984375 L 2260.558594 1257.070312 Z M 2088.644531 1428.984375 "/>
</g>
</g>
</g>
<g clip-path="url(#clip-12)">
<g clip-path="url(#clip-13)">
<g clip-path="url(#clip-14)">
<path fill-rule="nonzero" fill="url(#linear-pattern-4)" d="M 232.890625 1996.941406 L 2000 3764.050781 L 3767.109375 1996.941406 L 2000 229.828125 Z M 232.890625 1996.941406 "/>
</g>
</g>
</g>
</svg>
